<!DOCTYPE svg PUBLIC "-//W3C//DTD SVG 1.1//EN" "http://www.w3.org/Graphics/SVG/1.1/DTD/svg11.dtd">
<!-- Uploaded to: SVG Repo, www.svgrepo.com, Transformed by: SVG Repo Mixer Tools -->
<svg width="800px" height="800px" viewBox="0 0 512 512" xmlns="http://www.w3.org/2000/svg" fill="#000000">
<g id="SVGRepo_bgCarrier" stroke-width="0"/>
<g id="SVGRepo_tracerCarrier" stroke-linecap="round" stroke-linejoin="round"/>
<g id="SVGRepo_iconCarrier"> <path fill="var(--ci-primary-color, #61666c)" d="M296,240H216a46.222,46.222,0,1,1,0-92.444H344v-32H276V56H244v59.556H216A78.222,78.222,0,0,0,216,272h80a46.274,46.274,0,0,1,46.222,46.222v3.556A46.274,46.274,0,0,1,296,368H160.593v32H244v56h32V400h20a78.31,78.31,0,0,0,78.222-78.222v-3.556A78.31,78.31,0,0,0,296,240Z" class="ci-primary"/> </g>
</svg>