<svg xmlns="http://www.w3.org/2000/svg" xmlns:xlink="http://www.w3.org/1999/xlink" version="1.1" xml:space="preserve" viewBox="1.41 101.16 252.9 53.4">

<defs fill="#61666c">
</defs>
<g style="stroke: none; stroke-width: 0; stroke-dasharray: none; stroke-linecap: butt; stroke-linejoin: miter; stroke-miterlimit: 10; fill: none; fill-rule: nonzero; opacity: 1;" transform="translate(1.4065934065934016 1.4065934065934016) scale(2.81 2.81)">
	<path d="M 0 35.499 h 5.308 c 1.424 -0.019 2.816 0.425 3.965 1.267 c 0.869 0.695 1.439 1.697 1.59 2.8 c 0.225 1.411 -0.104 2.855 -0.918 4.029 c -0.775 1.007 -1.877 1.713 -3.117 1.995 c -1.4 0.374 -2.857 0.241 -4.288 0.266 v 4.884 H 0.006 V 35.499 M 2.54 37.773 v 5.79 c 0.836 0 1.666 0 2.502 0 c 1.055 0.014 2.063 -0.432 2.762 -1.223 c 0.521 -0.716 0.691 -1.628 0.462 -2.483 C 8.136 39.271 7.796 38.753 7.31 38.4 c -0.659 -0.432 -1.435 -0.653 -2.223 -0.633 H 2.553 M 14.519 40.414 c 1.133 -0.548 2.424 -0.676 3.642 -0.361 c 0.85 0.219 1.603 0.713 2.141 1.406 c 0 -0.456 0 -0.912 0 -1.375 h 2.375 c 0 3.554 0 7.101 0 10.655 h -2.356 c 0 -0.507 0 -1.014 0 -1.527 c -0.779 0.999 -1.948 1.616 -3.212 1.698 c -1.042 0.144 -2.103 -0.036 -3.041 -0.513 c -1.091 -0.597 -1.92 -1.579 -2.325 -2.755 c -0.459 -1.301 -0.459 -2.721 0 -4.022 C 12.23 42.238 13.221 41.093 14.519 40.414 M 16.419 42.131 c -1.352 0.349 -2.355 1.485 -2.534 2.87 c -0.155 1.204 0.324 2.402 1.267 3.167 c 1.367 0.92 3.2 0.708 4.32 -0.5 c 1.264 -1.463 1.129 -3.668 -0.304 -4.966 c -0.758 -0.597 -1.747 -0.816 -2.686 -0.595 M 40.135 39.933 c 1.198 -0.1 2.397 0.179 3.427 0.798 c 1.068 0.655 1.869 1.667 2.261 2.857 c 0.499 1.486 0.376 3.11 -0.342 4.504 c -0.571 1.079 -1.491 1.932 -2.61 2.42 c -2.759 1.294 -6.044 0.106 -7.338 -2.652 c -0.872 -1.859 -0.639 -4.049 0.604 -5.684 C 37.081 40.882 38.54 40.064 40.135 39.933 M 39.856 42.276 c -0.736 0.178 -1.375 0.631 -1.786 1.267 c -0.617 0.94 -0.738 2.122 -0.323 3.167 c 0.227 0.585 0.627 1.087 1.147 1.438 c 0.882 0.575 1.993 0.667 2.958 0.247 c 0.693 -0.31 1.248 -0.865 1.558 -1.558 c 0.418 -0.924 0.418 -1.983 0 -2.908 C 42.75 42.624 41.281 41.94 39.856 42.276 M 50.188 41.453 c 0.889 -1.059 2.224 -1.639 3.604 -1.565 c 1.093 -0.028 2.148 0.404 2.908 1.191 c 0.783 0.974 1.188 2.197 1.14 3.446 c 0 2.071 0 4.143 0 6.214 h -2.458 v -5.904 c 0.022 -0.67 -0.156 -1.332 -0.513 -1.9 c -0.277 -0.392 -0.686 -0.671 -1.153 -0.785 c -0.829 -0.198 -1.704 -0.024 -2.394 0.475 c -0.513 0.384 -0.876 0.935 -1.026 1.558 c -0.092 0.471 -0.124 0.952 -0.095 1.432 v 5.15 h -2.426 v -10.68 h 2.426 v 1.368 M 63.604 40.04 c 1.509 -0.375 3.106 -0.094 4.396 0.773 c 0.986 0.698 1.676 1.74 1.932 2.92 c 0.156 0.769 0.18 1.56 0.07 2.337 h -8.095 c 0.106 0.94 0.626 1.783 1.419 2.299 c 1.508 0.837 3.402 0.431 4.434 -0.95 l 1.9 1.045 c -0.544 0.934 -1.391 1.654 -2.401 2.04 c -1.165 0.461 -2.438 0.578 -3.668 0.336 c -1.125 -0.217 -2.143 -0.809 -2.889 -1.679 c -0.785 -0.964 -1.23 -2.159 -1.267 -3.402 c -0.083 -1.185 0.214 -2.366 0.849 -3.37 c 0.752 -1.175 1.931 -2.013 3.288 -2.337 M 63.364 42.34 c -0.691 0.416 -1.173 1.107 -1.324 1.9 h 5.524 c -0.072 -0.66 -0.408 -1.263 -0.931 -1.672 c -0.958 -0.695 -2.23 -0.776 -3.269 -0.209 M 73.765 40.959 c 1.047 -0.749 2.32 -1.114 3.604 -1.033 c 1.342 0.06 2.608 0.642 3.528 1.622 c 0.798 0.891 1.248 2.041 1.267 3.237 c 0.016 0.436 -0.003 0.872 -0.057 1.305 h -8.083 c 0.099 0.922 0.603 1.753 1.375 2.268 c 1.512 0.884 3.448 0.489 4.491 -0.918 l 1.9 1.045 c -0.697 1.166 -1.842 1.995 -3.167 2.293 c -1.424 0.382 -2.937 0.245 -4.269 -0.386 c -1.004 -0.515 -1.803 -1.354 -2.268 -2.382 c -0.487 -1.11 -0.647 -2.336 -0.462 -3.535 c 0.221 -1.41 0.994 -2.675 2.147 -3.516 M 75.431 42.39 c -0.656 0.419 -1.114 1.087 -1.267 1.85 h 5.524 c -0.069 -0.712 -0.443 -1.359 -1.026 -1.774 c -0.971 -0.641 -2.219 -0.683 -3.231 -0.108 M 88.1 40.129 c 0.623 -0.166 1.278 -0.166 1.9 0 c 0 0.747 0 1.501 0 2.255 c -0.82 -0.217 -1.69 -0.139 -2.458 0.222 c -0.564 0.306 -0.98 0.827 -1.153 1.444 c -0.13 0.554 -0.174 1.124 -0.133 1.691 v 4.998 h -2.407 c 0 -3.547 0 -7.101 0 -10.655 c 0.804 0 1.603 0 2.407 0 v 1.495 c 0.394 -0.71 1.055 -1.232 1.837 -1.451 M 24.115 40.091 h 2.756 l 2.622 7.601 l 2.939 -7.601 h 2.616 c -1.993 4.793 -3.995 9.597 -6.005 14.411 h -2.616 c 0.545 -1.267 1.083 -2.489 1.634 -3.737 c -1.311 -3.554 -2.635 -7.101 -3.946 -10.655 L 24.115 40.091 z" style="stroke: none; stroke-width: 1; stroke-dasharray: none; stroke-linecap: butt; stroke-linejoin: miter; stroke-miterlimit: 10; fill:#61666c; fill-rule: nonzero; opacity: 1;" transform=" matrix(1 0 0 1 0 0) " stroke-linecap="round"/>
</g>
</svg>