<svg xmlns="http://www.w3.org/2000/svg" fill="#61666c" version="1.1" viewBox="1.01 13.47 29.99 5.06">

<g id="SVGRepo_bgCarrier" stroke-width="0"/>

<g id="SVGRepo_tracerCarrier" stroke-linecap="round" stroke-linejoin="round"/>

<g id="SVGRepo_iconCarrier"> <title>discover</title> <path d="M3.962 15.979c0-0.002 0-0.005 0-0.008 0-0.464-0.197-0.882-0.513-1.174l-0.001-0.001c-0.295-0.245-0.677-0.394-1.094-0.394-0.061 0-0.122 0.003-0.182 0.009l0.007-0.001h-0.249v3.143h0.249c0.051 0.005 0.11 0.008 0.169 0.008 0.417 0 0.801-0.145 1.103-0.388l-0.003 0.003c0.317-0.298 0.514-0.72 0.514-1.189 0-0.003 0-0.006-0-0.009v0zM4.917 15.986c-0.004 0.732-0.337 1.386-0.858 1.821l-0.004 0.003c-0.422 0.344-0.966 0.552-1.558 0.552-0.048 0-0.096-0.001-0.144-0.004l0.007 0h-1.353v-4.752h1.361c0.057-0.005 0.123-0.008 0.19-0.008 1.304 0 2.361 1.057 2.361 2.361 0 0.009-0 0.018-0 0.028v-0.001zM29.269 15.059c0-0.462-0.314-0.704-0.891-0.704h-0.285v1.44h0.271c0.591-0.001 0.905-0.259 0.905-0.736zM29.14 16.356l1.496 2.002h-1.14l-1.283-1.909h-0.121v1.909h-0.926v-4.752h1.375c1.068 0 1.682 0.514 1.682 1.403 0.002 0.029 0.004 0.063 0.004 0.097 0 0.635-0.469 1.161-1.079 1.25l-0.007 0.001zM30.675 13.798c0-0.036-0.026-0.054-0.075-0.054h-0.018v0.109h0.017c0.049-0 0.075-0.018 0.075-0.055zM30.682 13.913l0.137 0.172h-0.121l-0.117-0.162v0.162h-0.1v-0.417h0.134c0.101 0 0.157 0.045 0.157 0.129 0 0.002 0 0.004 0 0.006 0 0.054-0.038 0.1-0.089 0.11l-0.001 0zM23.923 18.358h2.629v-0.805h-1.702v-1.283h1.64v-0.805h-1.64v-1.055h1.702v-0.805h-2.629zM21.216 16.799l-1.267-3.192h-1.012l2.017 4.874h0.499l2.053-4.874h-1.005zM5.343 18.358h0.927v-4.752h-0.927zM30.922 13.877c-0.003-0.16-0.133-0.289-0.294-0.289-0.162 0-0.294 0.132-0.294 0.294s0.131 0.294 0.294 0.294c0.083 0 0.158-0.034 0.211-0.089l0-0c0.051-0.053 0.083-0.125 0.083-0.204 0-0.002 0-0.004-0-0.005v0zM30.996 13.876c0 0.001 0 0.002 0 0.003 0 0.2-0.162 0.362-0.362 0.362s-0.362-0.162-0.362-0.362c0-0.001 0-0.002 0-0.003v0-0.004c-0-0.006-0.001-0.013-0.001-0.019 0-0.2 0.162-0.362 0.362-0.362s0.362 0.162 0.362 0.362c0 0.008-0 0.016-0.001 0.024l0-0.001zM8.537 15.43c-0.556-0.206-0.72-0.341-0.72-0.599 0-0.299 0.291-0.527 0.691-0.527 0.305 0.007 0.575 0.155 0.745 0.382l0.002 0.002 0.485-0.635c-0.366-0.327-0.852-0.527-1.384-0.527-0.004 0-0.008 0-0.012 0h0.001c-0.026-0.002-0.056-0.003-0.087-0.003-0.759 0-1.377 0.607-1.395 1.362l-0 0.002c0 0.655 0.299 0.99 1.17 1.303 0.248 0.079 0.46 0.171 0.661 0.281l-0.019-0.010c0.167 0.101 0.277 0.282 0.277 0.489 0 0.001 0 0.002 0 0.003v-0c-0.003 0.371-0.305 0.671-0.677 0.671-0.015 0-0.030-0-0.045-0.001l0.002 0c-0.005 0-0.012 0-0.018 0-0.437 0-0.815-0.256-0.99-0.627l-0.003-0.007-0.599 0.576c0.327 0.546 0.916 0.906 1.589 0.906 0.020 0 0.040-0 0.060-0.001l-0.003 0c0.032 0.002 0.069 0.004 0.107 0.004 0.846 0 1.532-0.686 1.532-1.532 0-0.012-0-0.023-0-0.034l0 0.002c-0.002-0.753-0.315-1.095-1.368-1.481zM12.726 13.499c-0.009-0-0.021-0-0.032-0-1.376 0-2.492 1.112-2.499 2.486v0.001c-0 0.006-0 0.013-0 0.019 0 1.359 1.101 2.46 2.46 2.46 0.017 0 0.034-0 0.050-0l-0.002 0c0.001 0 0.001 0 0.002 0 0.423 0 0.823-0.102 1.175-0.283l-0.014 0.007v-1.091c-0.271 0.317-0.671 0.518-1.118 0.52h-0c-0.013 0-0.029 0.001-0.045 0.001-0.858 0-1.553-0.695-1.553-1.553 0-0.031 0.001-0.061 0.003-0.091l-0 0.004c-0.001-0.016-0.001-0.034-0.001-0.052 0-0.863 0.693-1.565 1.553-1.58l0.001-0c0.463 0.003 0.878 0.209 1.161 0.533l0.002 0.002v-1.091c-0.329-0.183-0.721-0.291-1.139-0.291-0.001 0-0.002 0-0.002 0h0zM19.224 16c0 1.396-1.132 2.528-2.528 2.528s-2.528-1.132-2.528-2.528c0-1.395 1.13-2.527 2.525-2.528h0.003c0 0 0 0 0 0 1.396 0 2.528 1.132 2.528 2.528 0 0 0 0 0 0v-0z" fill="#61666c"/> </g>

</svg>